# xmcd
#
# Track frame offsets:
#	150
#	11850
#	26775
#	40425
#	66900
#	77475
#	88575
#	106950
#	123300
#	146700
#	185325
#
# Disc length: 2849 seconds
#
# Revision: 3
# Processed by: cddbd v1.5.1PL0 Copyright (c) Steve Scherf et al.
# Submitted via: EasyCDDAExtractor 8.2.1.1
#
DISCID=940b1f0b
DTITLE=Nina Simone - Fine And Mellow
DYEAR=1994
DGENRE=Blues
TTITLE0=Work Song
TTITLE1=Angel Of The Morning
TTITLE2=Ain't Got No/I Got Life
TTITLE3=You Can Have Him
TTITLE4=Peace of Mind
TTITLE5=Loving Woman
TTITLE6=Little Liza Jane
TTITLE7=Here Comes The Sun
TTITLE8=My Way
TTITLE9=Nina's Blues
TTITLE10=Fine And Mellow
EXTD=
EXTT0=
EXTT1=
EXTT2=
EXTT3=
EXTT4=
EXTT5=
EXTT6=
EXTT7=
EXTT8=
EXTT9=
EXTT10=
PLAYORDER=
